# xmcd
#
# Track frame offsets: 
#        150
#        14217
#        23676
#        37197
#        49875
#        63331
#        75750
#        87835
#        99074
#        111224
#        125330
#        137172
#        149001
#        160802
#        173525
#        187243
#        199447
#        211981
#        224009
#        234519
#        247573
#        262685
#        275747
#        287387
#
# Disc length: 3984 seconds
#
# Revision: 1
# Processed by: cddbd v1.5.2PL0 Copyright (c) Steve Scherf et al.
# Submitted via: ExactAudioCopy v1.1
#
DISCID=570f8e18
DTITLE=Various Artist - The Complete Motown Singles Volume 6 [CD28
DTITLE=)
DYEAR=2006
DGENRE=R&B
TTITLE0=Martha and The Vandellas - My Baby Loves Me (mono)
TTITLE1=Martha and The Vandellas - Never Leave Your Baby's Side (mono)
TTITLE2=Brenda Holloway - Together 'Til The End Of Time (mono)
TTITLE3=The Isley Brothers - This Old Heart Of Mine (Is Weak For You) 
TTITLE3=(1st pressing Brian Holland mix) (mono)
TTITLE4=The Isley Brothers - There's No Love Left (mono)
TTITLE5=The Isley Brothers - This Old Heart Of Mine (Is Weak For You) 
TTITLE5=(2nd pressing Lawrence Horn mix) (mono)
TTITLE6=Marvin Gaye - One More Heartache (mono)
TTITLE7=Marvin Gaye - When I Had Your Love (mono)
TTITLE8=Four Tops - Shake Me, Wake Me (When It's Over) (mono)
TTITLE9=Four Tops - Just As Long As You Need Me (mono)
TTITLE10=The Temptations - Get Ready (mono)
TTITLE11=The Temptations - Fading Away (mono)
TTITLE12=Kim Weston - Helpless (mono)
TTITLE13=Kim Weston - A Love Like Yours (Don't Come Knocking Everyday)
TTITLE13=(mono)
TTITLE14=The Monitors - Greetings (This Is Uncle Sam) (mono)
TTITLE15=The Monitors - Number One In Your Heart (mono)
TTITLE16=Marv Johnson - I Miss You Baby (How I Miss You) (mono)
TTITLE17=Marv Johnson - Just The Way You Are (mono)
TTITLE18=Billy Eckstine - Slender Thread (mono)
TTITLE19=Billy Eckstine - I Wish You Were Here (mono)
TTITLE20=Connie Haines - What's Easy For Two Is Hard For One (mono)
TTITLE21=Connie Haines - Walk In Silence (mono)
TTITLE22=Frances Nero - Keep On Loving Me (mono)
TTITLE23=Frances Nero - Fight Fire With Fire (mono)
EXTD=
EXTT0=
EXTT1=
EXTT2=
EXTT3=
EXTT4=
EXTT5=
EXTT6=
EXTT7=
EXTT8=
EXTT9=
EXTT10=
EXTT11=
EXTT12=
EXTT13=
EXTT14=
EXTT15=
EXTT16=
EXTT17=
EXTT18=
EXTT19=
EXTT20=
EXTT21=
EXTT22=
EXTT23=
PLAYORDER=
